<?xml version="1.0" encoding="UTF-8" standalone="no"?>
<svg
   sodipodi:docname="Vadose Logo.svg"
   xml:space="preserve"
   id="svg138"
   version="1.1"
   viewBox="0 0 105.83333 26.458333"
   height="100"
   width="400"
   inkscape:version="1.2.2 (732a01da63, 2022-12-09)"
   xmlns:inkscape="http://www.inkscape.org/namespaces/inkscape"
   xmlns:sodipodi="http://sodipodi.sourceforge.net/DTD/sodipodi-0.dtd"
   xmlns="http://www.w3.org/2000/svg"
   xmlns:svg="http://www.w3.org/2000/svg"><sodipodi:namedview
     id="namedview140"
     pagecolor="#505050"
     bordercolor="#ffffff"
     borderopacity="1"
     inkscape:showpageshadow="0"
     inkscape:pageopacity="0"
     inkscape:pagecheckerboard="1"
     inkscape:deskcolor="#505050"
     inkscape:document-units="mm"
     showgrid="false"
     showguides="false"
     inkscape:zoom="0.70710682"
     inkscape:cx="91.923877"
     inkscape:cy="103.23758"
     inkscape:window-width="1360"
     inkscape:window-height="745"
     inkscape:window-x="-8"
     inkscape:window-y="-8"
     inkscape:window-maximized="1"
     inkscape:current-layer="layer6" /><defs
     id="defs135" /><g
     inkscape:label="Background"
     inkscape:groupmode="layer"
     id="layer1"
     transform="matrix(1.1504234,0,0,1.1504234,-1.440541,-17.86489)"
     style="display:inline" /><g
     inkscape:groupmode="layer"
     id="layer4"
     inkscape:label="Background"
     style="display:inline;fill:#ff0000" /><g
     inkscape:groupmode="layer"
     id="layer5"
     inkscape:label="Icon"
     style="display:inline" /><g
     inkscape:groupmode="layer"
     id="layer6"
     inkscape:label="Name"><text
       xml:space="preserve"
       style="font-size:2.43417px;fill:#ffffff;fill-opacity:0.986711;stroke:none;stroke-width:0.264583;stroke-linecap:round;stroke-linejoin:round;stroke-miterlimit:4.5;paint-order:markers stroke fill"
       x="99.90535"
       y="146.11624"
       id="text11321"><tspan
         sodipodi:role="line"
         id="tspan11319"
         style="fill:#ffffff;stroke-width:0.264583"
         x="99.90535"
         y="146.11624" /></text><g
       id="g14612"
       transform="matrix(0.53172817,0,0,0.53172817,-10.623222,21.878253)"><rect
         style="display:inline;fill:#0d0d0d;fill-opacity:1;stroke:none;stroke-width:0.599552;stroke-linecap:round;stroke-linejoin:round;stroke-miterlimit:4.5;paint-order:markers stroke fill"
         id="rect5645"
         width="199.03653"
         height="49.759132"
         x="19.978674"
         y="-41.145557" /><rect
         style="display:inline;fill:#f2f2f2;fill-opacity:1;stroke:none;stroke-width:0.330285;stroke-linecap:round;stroke-linejoin:round;stroke-miterlimit:4.5;paint-order:markers stroke fill"
         id="rect6638"
         width="45.778404"
         height="45.778404"
         x="23.461811"
         y="-39.155193" /><g
         id="g14616"
         transform="translate(42.786616,-87.639267)"><path
           id="rect10933"
           style="display:inline;fill:#000000;fill-opacity:0.986711;stroke:none;stroke-width:0.236017;stroke-linecap:round;stroke-linejoin:round;stroke-miterlimit:4.5;paint-order:markers stroke fill"
           d="m 18.855089,57.686228 a 2.6204551,2.6204551 0 0 0 -3.585281,0.93753 L 1.6257636,81.930169 a 2.6204551,2.6204551 0 0 0 0.937532,3.58527 2.6204551,2.6204551 0 0 0 3.585272,-0.93753 L 19.792623,61.271508 a 2.6204551,2.6204551 0 0 0 -0.937534,-3.58528 z" /><path
           id="path11208"
           style="display:inline;fill:#000000;fill-opacity:0.986711;stroke:none;stroke-width:0.236017;stroke-linecap:round;stroke-linejoin:round;stroke-miterlimit:4.5;paint-order:markers stroke fill"
           d="m -10.578745,61.626353 a 2.6204551,2.6204551 0 0 0 -1.16737,0.36535 2.6204551,2.6204551 0 0 0 -0.905888,3.59358 l 5.0632566,8.47597 -0.0031,0.002 3.164665,5.29786 a 2.6204551,2.6204551 0 0 0 3.59306205,0.90589 2.6204551,2.6204551 0 0 0 0.905888,-3.59358 l -0.599963,-1.00459 0.0031,-0.002 -7.62744105,-12.76925 a 2.6204551,2.6204551 0 0 0 -2.4262086,-1.27124 z m 7.8770386,19.69906 -0.40566,0.23874 0.01033,0.0171 z" /></g><g
         aria-label="Vadose"
         id="text11689"
         style="font-size:25.4px;line-height:0;letter-spacing:0.396875px;word-spacing:0px;fill:#ff00ff;fill-opacity:0.986711;stroke-width:0.264583;stroke-linecap:round;stroke-linejoin:round;stroke-miterlimit:4.5;paint-order:markers stroke fill"><path
           d="m 97.223051,-26.575088 h 2.20486 l 6.711039,15.668282 6.83507,-15.668282 h 2.20486 l -8.81944,20.270926 h -0.44097 z"
           style="font-size:28.2222px;fill:#ffffff"
           id="path445" /><path
           d="m 131.89172,-19.797912 v 13.49375 h -1.71152 v -2.3192383 q -1.09141,1.3270508 -2.45567,1.9967773 -1.35185,0.6697266 -2.96416,0.6697266 -2.86494,0 -4.89892,-2.0711914 -2.02158,-2.0835932 -2.02158,-5.0601562 0,-2.914551 2.04638,-4.985742 2.04639,-2.071191 4.92373,-2.071191 1.66192,0 3.00137,0.706933 1.35186,0.706934 2.36885,2.120801 v -2.480469 z m -6.94531,1.327051 q -1.45108,0 -2.67891,0.719336 -1.22783,0.706933 -1.95957,1.996777 -0.71933,1.289844 -0.71933,2.728516 0,1.426269 0.73173,2.728515 0.73174,1.3022464 1.95958,2.0339847 1.24023,0.7193359 2.6541,0.7193359 1.42627,0 2.70371,-0.7193359 1.27744,-0.7193359 1.95957,-1.9471677 0.69453,-1.227832 0.69453,-2.765723 0,-2.344043 -1.55029,-3.91914 -1.53789,-1.575098 -3.79512,-1.575098 z"
           style="font-family:'Century Gothic';-inkscape-font-specification:'Century Gothic';fill:#ffffff"
           id="path447" /><path
           d="m 149.66428,-25.006896 v 18.702734 h -1.71153 v -2.3192383 q -1.0914,1.3270508 -2.45566,1.9967773 -1.35186,0.6697266 -2.96416,0.6697266 -2.86494,0 -4.89893,-2.0711914 -2.02158,-2.0835932 -2.02158,-5.0601562 0,-2.914551 2.04639,-4.985742 2.04639,-2.071191 4.92373,-2.071191 1.66191,0 3.00137,0.706933 1.35185,0.706934 2.36884,2.120801 v -7.689453 z m -6.94531,6.536035 q -1.45108,0 -2.67891,0.719336 -1.22783,0.706933 -1.95957,1.996777 -0.71934,1.289844 -0.71934,2.728516 0,1.426269 0.73174,2.728515 0.73174,1.3022464 1.95957,2.0339847 1.24024,0.7193359 2.6541,0.7193359 1.42627,0 2.70371,-0.7193359 1.27744,-0.7193359 1.95957,-1.9471677 0.69454,-1.227832 0.69454,-2.765723 0,-2.344043 -1.5503,-3.91914 -1.53789,-1.575098 -3.79511,-1.575098 z"
           style="font-family:'Century Gothic';-inkscape-font-specification:'Century Gothic';fill:#ffffff"
           id="path449" /><path
           d="m 160.3799,-20.145177 q 3.11299,0 5.15938,2.257226 1.86035,2.058789 1.86035,4.874121 0,2.827734 -1.97197,4.9485352 -1.95957,2.1083984 -5.04776,2.1083984 -3.10058,0 -5.07256,-2.1083984 -1.95957,-2.1208012 -1.95957,-4.9485352 0,-2.80293 1.86036,-4.861719 2.04638,-2.269628 5.17177,-2.269628 z m 0,1.699121 q -2.15801,0 -3.7083,1.599902 -1.55029,1.599902 -1.55029,3.869531 0,1.463477 0.70693,2.728516 0.70694,1.2650388 1.90996,1.95957 1.20303,0.6821289 2.6417,0.6821289 1.43867,0 2.6417,-0.6821289 1.20303,-0.6945312 1.90996,-1.95957 0.70694,-1.265039 0.70694,-2.728516 0,-2.269629 -1.5627,-3.869531 -1.55029,-1.599902 -3.6959,-1.599902 z"
           style="font-family:'Century Gothic';-inkscape-font-specification:'Century Gothic';fill:#ffffff"
           id="path451" /><path
           d="m 177.8052,-18.322033 -1.11621,1.153418 q -1.38907,-1.351855 -2.71612,-1.351855 -0.84336,0 -1.45107,0.558105 -0.59531,0.558105 -0.59531,1.302246 0,0.657324 0.49609,1.252637 0.49609,0.607715 2.08359,1.426269 1.93477,1.00459 2.6293,1.934766 0.68213,0.942578 0.68213,2.1208007 0,1.661914 -1.16582,2.8153319 -1.16582,1.153418 -2.91455,1.153418 -1.16582,0 -2.23242,-0.5084961 -1.0542,-0.5084961 -1.74873,-1.4014648 l 1.0914,-1.2402344 q 1.32705,1.5006836 2.81533,1.5006836 1.0418,0 1.77354,-0.6697266 0.73174,-0.6697265 0.73174,-1.5750976 0,-0.7441407 -0.48369,-1.3270507 -0.4837,-0.570508 -2.18282,-1.438672 -1.82314,-0.942578 -2.48046,-1.860351 -0.65733,-0.917774 -0.65733,-2.095996 0,-1.537891 1.0418,-2.554883 1.0542,-1.016992 2.6541,-1.016992 1.86035,0 3.74551,1.823144 z"
           style="font-family:'Century Gothic';-inkscape-font-specification:'Century Gothic';fill:#ffffff"
           id="path453" /><path
           d="m 192.6384,-10.781408 1.46348,0.768945 q -0.71934,1.4138674 -1.66192,2.2820315 -0.94258,0.868164 -2.1208,1.3270507 -1.17822,0.4464844 -2.6665,0.4464844 -3.29903,0 -5.15938,-2.1580078 -1.86035,-2.1704098 -1.86035,-4.8989258 0,-2.567285 1.5751,-4.576465 1.99677,-2.554882 5.34541,-2.554882 3.44785,0 5.50664,2.616894 1.46347,1.847949 1.48828,4.613672 h -12.12949 q 0.0496,2.356445 1.50068,3.869531 1.45108,1.5006836 3.58428,1.5006836 1.02939,0 1.99678,-0.3596679 0.97978,-0.359668 1.66191,-0.9549805 0.68213,-0.5953125 1.47588,-1.9223632 z m 0,-3.633887 q -0.34727,-1.389062 -1.01699,-2.220019 -0.65733,-0.830957 -1.74873,-1.339453 -1.09141,-0.508496 -2.29444,-0.508496 -1.98437,0 -3.41064,1.277441 -1.0418,0.930176 -1.5751,2.790527 z"
           style="font-family:'Century Gothic';-inkscape-font-specification:'Century Gothic';fill:#ffffff"
           id="path455" /></g></g></g></svg>
